<svg width="31" height="32" viewBox="0 0 31 32" fill="none" xmlns="http://www.w3.org/2000/svg">
<path fill-rule="evenodd" clip-rule="evenodd" d="M12.5605 0C12.6647 0 12.7688 0 12.873 0C13.3241 0.423469 13.5199 2.98628 12.6855 2.93753C11.9436 2.8941 12.1072 0.425719 12.5605 0Z" fill="white"/>
<path fill-rule="evenodd" clip-rule="evenodd" d="M6.49806 1.68753C6.88003 1.58335 7.16631 2.10867 7.49802 2.68757C7.79514 3.20597 8.45122 4.23418 7.62303 4.3126C7.27391 4.34553 5.48102 1.96482 6.49806 1.68753Z" fill="white"/>
<path fill-rule="evenodd" clip-rule="evenodd" d="M18.7477 1.68755C19.7714 1.44419 18.9633 2.87978 18.7477 3.25008C18.6213 3.46702 18.2861 4.28353 17.9352 4.31262C16.663 4.41772 18.3539 1.78114 18.7477 1.68755Z" fill="white"/>
<path fill-rule="evenodd" clip-rule="evenodd" d="M13.1859 32C12.8734 32 12.561 32 12.2484 32C10.9166 31.6651 10.0405 30.8745 9.87346 29.375C7.93839 29.8617 6.89643 28.0637 7.87339 26.8125C7.38849 26.3305 7.37232 25.0411 7.87339 24.5624C7.0032 23.6445 7.76371 22.0748 8.74849 21.8749C8.54147 20.0974 7.15538 19.7392 6.24844 18.7499C4.65008 17.0064 3.28416 13.9869 4.12343 10.5625C4.96111 7.14527 8.04332 4.21191 11.8734 3.93755C15.6692 3.6656 17.6615 5.20062 19.5609 7.06251C20.5334 6.18232 22.1091 6.67813 22.4358 7.81252C22.7503 8.90449 22.3325 10.3309 22.4983 11.625C22.9977 11.4479 23.198 11.3637 23.6858 11.4375C24.1513 11.5079 24.4748 12.0024 24.6859 12C24.7443 11.9993 25.0046 11.6877 25.1233 11.6249C25.4513 11.4518 25.8088 11.4011 26.1859 11.4374C26.5511 11.4726 27.1899 12.0013 27.3108 11.9999C27.3809 11.9991 27.6499 11.6768 27.7483 11.6248C27.8981 11.5458 28.2122 11.4543 28.3733 11.4373C30.6654 11.1955 30.3733 13.4766 30.3733 15.7498C30.3733 16.9265 30.5129 18.15 30.3733 18.9998C30.1674 20.254 29.2209 20.6874 28.3733 21.0623C28.3733 21.4374 28.3733 21.8122 28.3733 22.1873C29.0409 22.292 29.2713 22.334 29.4983 22.6873C29.8231 23.1931 29.8888 26.0938 29.6233 26.7498C29.4199 27.2523 27.3641 27.7657 27.2483 26.9374C27.1447 26.1951 28.0184 26.4054 28.7484 26.3748C28.7484 25.3123 28.7484 24.2499 28.7484 23.1872C26.0399 23.1872 23.3317 23.1872 20.6234 23.1872C20.6234 24.2499 20.6234 25.3123 20.6234 26.3748C21.5737 26.3748 22.4375 26.3748 23.5609 26.3748C24.2105 26.3748 26.1829 26.0605 25.9358 26.9999C25.7909 27.5509 24.0893 27.3122 23.3109 27.3122C22.1525 27.3122 21.2835 27.3122 20.3109 27.3122C20.0565 27.15 19.8482 26.9416 19.6858 26.6873C19.7249 25.4138 19.6062 23.9826 19.7483 22.8124C19.9917 22.4723 20.2852 22.1824 20.9359 22.2498C20.9359 21.8331 20.9359 21.4165 20.9359 20.9998C19.8788 20.7653 19.3136 20.0388 18.9984 19.0623C18.2147 19.7577 16.736 20.2998 16.6859 21.9372C17.7794 22.0947 18.4353 23.7056 17.5609 24.5622C18.0961 25.1111 18.0823 26.2581 17.5609 26.8123C18.5994 28.0034 17.5345 29.858 15.5609 29.3748C15.4075 30.8882 14.5255 31.6729 13.1859 32ZM11.8109 4.87499C9.71853 5.0716 8.15692 6.13557 6.93594 7.43747C4.6199 9.90703 4.18852 14.2355 6.1235 17.125C7.29023 18.8673 9.473 19.3944 9.74845 21.9374C10.5609 21.9374 11.3735 21.9374 12.1859 21.9374C12.1859 20.7291 12.1859 19.5208 12.1859 18.3125C9.28273 17.777 7.33624 16.0535 7.12346 13.2499C6.87293 9.94795 9.21213 7.45289 12.0609 7.18744C14.7285 6.93891 16.5764 8.36959 17.4359 9.81243C17.8048 10.4317 18.6947 12.2731 17.6859 12.2499C17.0698 12.2357 17.0298 11.0085 16.8734 10.6874C16.2431 9.39322 14.6029 7.84053 12.0609 8.12489C10.5686 8.29183 9.34982 9.22319 8.68598 10.3124C6.66324 13.6311 9.5045 17.7121 13.1234 17.3749C14.7959 17.2191 16.1721 16.1453 16.8109 14.9374C16.9758 14.6254 17.1308 13.4466 17.7484 13.5624C18.3872 13.6822 17.9226 14.7676 17.6859 15.2499C16.8271 16.9997 15.1322 18.0589 13.1234 18.3125C13.1234 19.5208 13.1234 20.7291 13.1234 21.9374C13.9985 21.9374 14.8734 21.9374 15.7484 21.9374C15.8689 20.9595 16.0288 20.3231 16.6234 19.6875C17.3225 18.9402 18.7132 18.4502 18.9359 17.5C19.0937 16.8266 18.9359 15.9122 18.9359 15.125C18.9359 12.6379 18.8846 10.2995 18.9984 7.93754C17.3997 6.12456 15.4134 4.53645 11.8109 4.87499ZM21.5609 10.875C21.5609 9.62332 21.8656 6.72872 20.3109 7.68742C19.2789 8.32375 20.1371 13.3669 19.9359 14.6874C20.2472 14.3947 20.9886 14.5318 21.5609 14.4999C21.5609 13.3133 21.5609 12.242 21.5609 10.875ZM22.5609 14.5C23.1025 14.5 23.6441 14.5 24.1859 14.5C24.9241 11.7638 21.8116 11.7195 22.5609 14.5ZM26.8109 15.5625C26.7238 14.3335 27.1247 12.581 26.2483 12.375C25.1753 12.1227 24.9989 13.3188 25.1233 14.5625C25.7333 14.8484 26.1215 15.356 26.3108 16.0625C26.4992 15.9175 26.6658 15.7508 26.8109 15.5625ZM28.2483 16.0624C28.6117 16.201 29.1824 16.0789 29.3734 15.6875C29.6754 15.0682 29.4916 12.9597 29.3108 12.6875C29.0883 12.3524 28.6725 12.3579 28.3733 12.4374C27.4602 12.6802 27.476 15.7679 28.2483 16.0624ZM25.1233 16.875C25.4716 16.4986 25.3638 15.6952 24.8109 15.4375C23.261 15.7142 21.9287 15.0643 20.4983 15.4375C19.7222 15.6399 19.685 17.6486 19.8734 18.7499C20.0733 19.9191 21.0117 19.9469 21.8108 20.3751C21.9515 20.8802 21.8355 21.642 21.8733 22.25C23.7275 22.25 25.5817 22.25 27.4359 22.25C27.4716 21.5982 27.339 20.7781 27.5608 20.3126C29.2218 20.0649 29.6585 18.9441 29.4359 16.875C28.6602 17.2578 27.7445 16.924 27.2483 16.5C27.0021 16.8163 26.5857 16.9623 26.1234 17.0625C25.665 18.1458 24.0989 18.1214 22.4983 18.0624C22.5162 18.621 22.5301 18.9067 22.1859 19C21.3828 19.2176 21.3178 17.4575 21.8733 17.125C22.8151 16.9225 24.5482 17.4965 25.1233 16.875ZM8.43595 23.75C8.75458 24.8071 13.9429 23.3406 13.5609 24.7499C13.4078 25.3147 11.834 25.0625 10.9359 25.0625C9.94781 25.0625 8.55497 24.803 8.43595 25.5625C8.24893 26.7555 11.6919 26.3125 12.8734 26.3125C14.0441 26.3125 17.1356 26.6973 17.0609 25.625C16.9931 24.6505 14.9903 25.4438 14.8734 24.6874C14.6966 23.544 17.0748 24.7006 17.0609 23.4999C17.0499 22.5531 14.2594 22.875 13.3734 22.875C11.8282 22.875 10.0728 22.6475 8.99844 22.9375C8.65157 23.0311 8.24351 23.1115 8.43595 23.75ZM10.4359 28.4374C11.9063 28.4374 13.3359 28.4374 14.8734 28.4374C15.5101 28.4374 17.5134 28.6562 16.9984 27.5624C16.8158 27.1747 16.0284 27.2499 15.2484 27.2499C13.7342 27.2499 12.4213 27.2499 10.9984 27.2499C9.80054 27.2499 8.07233 26.888 8.49846 28.1875C8.94685 28.6041 9.72078 28.4374 10.4359 28.4374ZM10.8109 29.5C10.9419 31.5421 14.6325 31.5453 14.6234 29.375C13.3915 29.4556 11.8355 29.2121 10.8109 29.5Z" fill="white"/>
<path fill-rule="evenodd" clip-rule="evenodd" d="M1.93525 6.18749C2.24287 6.06039 4.23253 7.05034 4.2477 7.56249C4.27521 8.49202 3.15199 7.80585 2.62267 7.49998C2.33664 7.33455 1.01947 6.56579 1.93525 6.18749Z" fill="white"/>
<path fill-rule="evenodd" clip-rule="evenodd" d="M12.1233 13.375C13.0302 12.9111 13.7983 11.3842 14.6858 10.9999C14.9509 10.8852 15.2436 11.3974 15.2483 11.4375C15.3087 11.9575 14.0779 12.8579 13.8108 13.125C13.5621 13.3737 12.6624 14.6005 12.1233 14.5625C11.7662 14.5373 11.4117 13.9134 11.0608 13.5625C10.7797 13.2814 9.46998 12.2097 10.4983 12C11.0881 11.8797 11.2891 12.5408 11.3734 12.6249C11.6766 12.9283 11.8344 12.9939 12.1233 13.375Z" fill="white"/>
<path fill-rule="evenodd" clip-rule="evenodd" d="M2.81023 13.0625C2.14982 13.2651 0.720645 13.2651 0.0602312 13.0625C-0.528007 11.8401 3.40064 11.83 2.81023 13.0625Z" fill="white"/>
<path fill-rule="evenodd" clip-rule="evenodd" d="M4.18498 17.5625C4.72738 18.2287 1.79927 19.9213 1.6225 19C1.55065 18.6253 3.12576 17.4927 3.685 17.4374C3.89094 17.4171 4.07088 17.4845 4.18498 17.5625Z" fill="white"/>
</svg>
