<svg width="32" height="32" viewBox="0 0 32 32" fill="none" xmlns="http://www.w3.org/2000/svg">
<path d="M9.33366 14.6667L14.667 2.66675C15.7279 2.66675 16.7453 3.08818 17.4954 3.83832C18.2456 4.58847 18.667 5.60588 18.667 6.66675V12.0001H26.2137C26.6002 11.9957 26.9831 12.0754 27.3358 12.2337C27.6884 12.392 28.0025 12.6251 28.2561 12.9168C28.5098 13.2085 28.697 13.5518 28.8048 13.9231C28.9126 14.2943 28.9383 14.6846 28.8803 15.0667L27.0403 27.0667C26.9439 27.7026 26.6209 28.2822 26.1309 28.6988C25.6408 29.1153 25.0168 29.3407 24.3737 29.3334H9.33366M9.33366 14.6667V29.3334M9.33366 14.6667H5.33366C4.62641 14.6667 3.94814 14.9477 3.44804 15.4478C2.94794 15.9479 2.66699 16.6262 2.66699 17.3334V26.6667C2.66699 27.374 2.94794 28.0523 3.44804 28.5524C3.94814 29.0525 4.62641 29.3334 5.33366 29.3334H9.33366" stroke="white" stroke-width="2" stroke-linecap="round" stroke-linejoin="round"/>
</svg>
